<svg width="24" height="24" viewBox="0 0 24 24" fill="none" xmlns="http://www.w3.org/2000/svg">
<path d="M20.7715 20.7705L20.7705 20.7715L16.0771 16.0771L20.7715 20.7705ZM10.0898 2.75195C12.0221 2.70808 13.8969 3.41072 15.3242 4.71387C16.7516 6.01706 17.6213 7.82072 17.7529 9.74902C17.8845 11.6772 17.2682 13.5824 16.0312 15.0674L15.5928 15.5928L15.0674 16.0312C13.5824 17.2682 11.6772 17.8845 9.74902 17.7529C7.82072 17.6213 6.01706 16.7516 4.71387 15.3242C3.41072 13.8969 2.70808 12.0221 2.75195 10.0898C2.79587 8.15755 3.58351 6.31688 4.9502 4.9502C6.31688 3.58351 8.15755 2.79587 10.0898 2.75195Z" stroke="#32302C" stroke-width="1.5"/>
</svg>
