<svg width="111" height="104" viewBox="0 0 111 104" fill="none" xmlns="http://www.w3.org/2000/svg">
<path d="M56.422 62.299L56.272 72.635L56.052 87.782L55.558 88.09L55.066 87.782L54.934 78.569L54.854 73.26L54.691 62.299L55.546 62.031L56.422 62.299Z" fill="#577CB8"/>
<path d="M55.1429 93.096L55.3139 103.412C55.3139 103.412 55.3519 103.643 55.5609 103.643C55.7699 103.643 55.799 103.398 55.799 103.398L55.9729 93.096L55.5569 92.858L55.1429 93.096Z" fill="#577CB8"/>
<path d="M59.261 6.61499C59.261 8.19099 58.275 9.53399 56.888 10.071L56.734 39.439L56.505 55.727L55.558 56.129L54.603 55.727L54.348 39.439L54.229 10.071C52.842 9.53399 51.856 8.19099 51.856 6.61499C51.856 4.57199 53.516 2.91699 55.558 2.91699C57.606 2.91699 59.261 4.57199 59.261 6.61499Z" fill="#577CB8"/>
<path d="M57.368 57.778C55.982 57.267 54.589 56.655 53.206 56.181C50.545 55.117 48.259 54.314 46.511 53.517C41.875 51.401 39.959 49.513 39.269 46.327C38.515 42.841 40.895 39.648 42.692 38.597C42.692 38.597 43.259 39.832 45.727 39.669C46.965 39.587 50.831 37.94 52.081 36.328C53.325 34.716 49.858 30.803 42.51 33.282C39.625 34.256 35.935 36.224 34.473 40.509C33.281 44.002 32.561 51.127 40.701 55.704C44.317 57.737 48.413 58.845 53.793 60.57C54.963 60.953 56.146 61.291 57.31 61.648C61.387 62.894 64.75 64.113 64.75 66.693C64.75 69.629 61.136 71.403 57.143 73.208L57.095 76.598C62.201 74.3 68.048 71.804 68.048 66.693C68.048 61.748 62.457 59.706 57.368 57.778ZM56.901 89.918C56.61 89.746 56.32 89.57 56.029 89.399C55.712 89.21 55.395 89.025 55.083 88.831C54.784 88.651 54.484 88.47 54.194 88.285C51.694 86.696 49.62 84.983 49.62 82.708C49.62 80.762 51.491 79.353 54.044 78.037L53.996 74.647C50.14 76.492 46.728 78.671 46.728 82.276C46.728 86.678 50.602 89.09 54.234 91.111C54.533 91.278 54.828 91.441 55.123 91.604C55.418 91.767 55.708 91.93 55.99 92.088C56.289 92.255 56.58 92.423 56.862 92.59C58.909 93.805 60.45 95.291 60.45 97.31C60.45 100.464 58.832 101.671 56.726 102.031C58.951 102.303 62.758 100.64 62.455 96.399C62.232 93.289 59.948 91.736 56.901 89.918Z" fill="#577CB8"/>
<path d="M43.0699 66.692C43.0699 71.803 48.9159 74.299 54.0229 76.597L53.9749 73.207C49.9819 71.402 46.368 69.628 46.368 66.692C46.368 64.112 49.731 62.893 53.808 61.647C54.972 61.289 56.155 60.951 57.325 60.569C62.704 58.843 66.7999 57.736 70.4169 55.703C78.5579 51.126 77.8379 44.001 76.6449 40.508C75.1819 36.223 71.4929 34.255 68.6079 33.281C61.2599 30.802 57.7929 34.715 59.0369 36.327C60.2869 37.938 64.1529 39.586 65.3909 39.668C67.8589 39.831 68.4259 38.596 68.4259 38.596C70.2229 39.647 72.6029 42.841 71.8489 46.326C71.1599 49.512 69.2439 51.4 64.6079 53.516C62.8599 54.314 60.5739 55.116 57.9129 56.18C56.5299 56.654 55.1369 57.266 53.7509 57.777C48.6609 59.706 43.0699 61.748 43.0699 66.692ZM48.6629 96.399C48.3599 100.64 52.1669 102.302 54.3919 102.031C52.2859 101.671 50.6679 100.464 50.6679 97.31C50.6679 95.291 52.209 93.805 54.256 92.59C54.538 92.423 54.8279 92.256 55.1279 92.088C55.4099 91.929 55.6999 91.767 55.9949 91.604C56.2899 91.441 56.5849 91.278 56.8839 91.111C60.5159 89.09 64.39 86.678 64.39 82.276C64.39 78.671 60.9779 76.491 57.1219 74.647L57.0739 78.037C59.6269 79.353 61.4979 80.762 61.4979 82.708C61.4979 84.984 59.4249 86.696 56.924 88.285C56.634 88.47 56.3339 88.65 56.0349 88.831C55.7219 89.025 55.406 89.21 55.088 89.399C54.798 89.571 54.5069 89.747 54.2159 89.918C51.1699 91.736 48.8849 93.289 48.6629 96.399Z" fill="#577CB8"/>
<path d="M102.199 15.223C105.887 14.841 109.738 12.38 110.603 9.41401C97.441 9.78501 91.269 7.829 84.039 5.088C82.691 9.937 79.099 11.244 74.541 12.45C73.151 12.818 71.877 13.753 70.4 14.837C67.707 16.813 64.357 19.274 58.644 19.274V22.947C58.644 27.087 62.901 26.964 62.901 26.964C62.901 26.964 62.468 24.492 62.654 22.638C63.418 27.458 65.744 28.57 68.957 28.57C66.733 25.542 67.474 20.66 67.474 20.66C70.008 30.114 74.261 30.282 76.681 28.884C74.827 27.037 72.479 22.39 72.232 18.125C73.962 22.202 76.372 26.592 79.029 28.013C81.686 29.434 85.517 29.017 86.403 27.482C80.729 24.206 77.299 16.708 77.299 16.708C85.085 26.721 91.268 28.184 93.859 28.328C96.899 28.497 98.755 27.754 100.931 25.91C94.999 24.242 85.888 19.424 81.068 13.121C88.492 20.617 95.775 22.34 99.667 22.34C103.56 22.34 106.507 20.289 107.31 17.817C98.412 17.014 92.931 15.531 86.505 11.267C90.917 13.763 97.1729 15.743 102.199 15.223ZM73.972 1.342C68.353 -0.362996 64.755 1.72101 63.934 5.44701C62.848 10.379 61.245 11.973 58.642 12.529V17.822C67.056 17.822 69.869 12.195 74.248 11.037C78.681 9.864 81.684 8.763 82.897 4.605C82.897 4.605 78.197 2.624 73.972 1.342Z" fill="#577CB8"/>
<path d="M24.614 11.268C18.188 15.532 12.707 17.015 3.80896 17.818C4.61196 20.29 7.55997 22.341 11.452 22.341C15.345 22.341 22.628 20.618 30.052 13.122C25.232 19.425 16.121 24.242 10.189 25.911C12.365 27.755 14.221 28.497 17.261 28.329C19.852 28.185 26.036 26.722 33.821 16.709C33.821 16.709 30.391 24.207 24.717 27.483C25.603 29.018 29.434 29.435 32.091 28.014C34.748 26.593 37.158 22.203 38.888 18.126C38.641 22.391 36.293 27.038 34.439 28.885C36.859 30.282 41.113 30.115 43.646 20.661C43.646 20.661 44.388 25.543 42.163 28.571C45.376 28.571 47.702 27.459 48.466 22.639C48.651 24.493 48.219 26.965 48.219 26.965C48.219 26.965 52.476 27.088 52.476 22.948V19.275C46.763 19.275 43.413 16.814 40.72 14.838C39.243 13.754 37.969 12.819 36.579 12.451C32.021 11.246 28.428 9.93901 27.081 5.08901C19.851 7.83001 13.678 9.78601 0.516968 9.41501C1.38197 12.381 5.23196 14.842 8.92096 15.224C13.945 15.743 20.201 13.763 24.614 11.268ZM28.221 4.60401C29.433 8.76201 32.437 9.86401 36.87 11.036C41.249 12.194 44.063 17.821 52.476 17.821V12.53C49.873 11.974 48.27 10.38 47.184 5.44801C46.363 1.72201 42.765 -0.361988 37.146 1.34301C32.921 2.62401 28.221 4.60401 28.221 4.60401Z" fill="#577CB8"/>
</svg>
