<svg width="46" height="62" viewBox="0 0 46 62" fill="none" xmlns="http://www.w3.org/2000/svg">
<path d="M33.587 43.355L45.049 25.427H36.428L28.909 37.379L20.118 22.723C21.804 21.643 23.078 20.217 23.93 18.439C24.861 16.496 25.326 14.414 25.326 12.194C25.326 8.43903 24.093 5.47604 21.628 3.30304C19.162 1.13204 15.693 0.0460205 11.219 0.0460205H0.296021V36.098H7.39802V24.636H12.15L24.134 42.866L12.329 61.48H21.146L28.91 49.038L36.233 61.48H45.393L33.587 43.355ZM7.39802 17.778V6.90402H12.492C14.647 6.90402 16.1 7.50002 16.851 8.69202C17.602 9.88502 17.978 11.134 17.978 12.439C17.978 13.746 17.537 14.962 16.655 16.088C15.773 17.215 14.369 17.778 12.442 17.778H7.39802Z" fill="#577CB8"/>
</svg>
