<svg width="291" height="272" viewBox="0 0 291 272" fill="none" xmlns="http://www.w3.org/2000/svg">
<path opacity="0.5" d="M90.0259 74.736C96.3989 78.415 107.598 77.974 114.269 53.08C114.269 53.08 116.221 65.934 110.364 73.906C118.824 73.906 124.949 70.977 126.96 58.287C127.448 63.168 126.309 69.676 126.309 69.676C126.309 69.676 137.517 70.001 137.517 59.1V49.429C122.474 49.429 113.653 42.949 106.562 37.747C102.673 34.893 99.3179 32.43 95.6579 31.462C83.6569 28.288 74.1969 24.847 70.6479 12.078C51.6099 19.294 35.3579 24.444 0.701904 23.468C2.9799 31.278 13.1179 37.757 22.8299 38.762C36.0649 40.131 52.5369 34.918 64.1569 28.349C47.2359 39.576 32.8049 43.48 9.37491 45.595C11.4899 52.103 19.2509 57.505 29.5009 57.505C39.7509 57.505 58.9279 52.968 78.4749 33.23C65.7839 49.826 41.7939 62.511 26.1749 66.904C31.9049 71.759 36.7919 73.714 44.7959 73.27C51.6189 72.891 67.8999 69.039 88.3999 42.674C88.3999 42.674 79.3679 62.417 64.4269 71.044C66.7599 75.086 76.8479 76.184 83.8439 72.442C90.8399 68.7 97.1859 57.141 101.741 46.406C101.09 57.636 94.9079 69.871 90.0259 74.736ZM96.4269 27.741C107.957 30.791 115.365 45.607 137.519 45.607V31.671C130.664 30.207 126.444 26.01 123.584 13.023C121.423 3.21102 111.948 -2.274 97.1539 2.214C86.0299 5.589 73.6539 10.803 73.6539 10.803C76.8459 21.752 84.7539 24.653 96.4269 27.741ZM142.137 25.195L142.45 102.524L143.122 145.411L145.637 146.469L148.129 145.411L148.731 102.524L149.137 25.195C152.789 23.781 155.385 20.246 155.385 16.096C155.385 10.718 151.026 6.36002 145.636 6.35902C140.258 6.35902 135.887 10.718 135.887 16.096C135.889 20.246 138.486 23.781 142.137 25.195ZM153.756 45.607C175.91 45.607 183.318 30.791 194.848 27.741C206.521 24.654 214.429 21.753 217.621 10.804C217.621 10.804 205.244 5.58901 194.121 2.21501C179.327 -2.27299 169.852 3.212 167.691 13.024C164.831 26.011 160.611 30.208 153.756 31.672V45.607ZM268.445 38.762C278.157 37.757 288.294 31.278 290.572 23.468C255.916 24.444 239.664 19.294 220.626 12.078C217.077 24.847 207.618 28.288 195.616 31.462C191.956 32.431 188.601 34.893 184.712 37.747C177.621 42.949 168.801 49.429 153.757 49.429V59.1C153.757 70.001 164.965 69.676 164.965 69.676C164.965 69.676 163.826 63.168 164.314 58.287C166.325 70.978 172.45 73.906 180.91 73.906C175.053 65.934 177.005 53.08 177.005 53.08C183.676 77.974 194.875 78.415 201.248 74.736C196.367 69.871 190.184 57.636 189.533 46.406C194.089 57.141 200.434 68.7 207.43 72.442C214.426 76.184 224.514 75.086 226.847 71.044C211.906 62.418 202.874 42.674 202.874 42.674C223.374 69.039 239.655 72.892 246.478 73.27C254.482 73.714 259.369 71.759 265.099 66.904C249.48 62.511 225.49 49.826 212.798 33.23C232.345 52.967 251.522 57.505 261.772 57.505C272.022 57.505 279.783 52.103 281.898 45.595C258.469 43.48 244.037 39.575 227.116 28.349C238.738 34.919 255.21 40.132 268.445 38.762ZM179.994 86.31C160.646 79.782 151.517 90.086 154.793 94.331C158.085 98.574 168.264 102.912 171.523 103.127C178.02 103.556 179.515 100.305 179.515 100.305C184.248 103.073 190.514 111.482 188.529 120.66C186.714 129.05 181.67 134.021 169.462 139.592C164.86 141.692 158.84 143.805 151.834 146.607C149.775 147.313 147.707 148.135 145.639 148.959C143.571 148.135 141.503 147.313 139.444 146.607C132.438 143.805 126.417 141.692 121.816 139.592C109.608 134.021 104.563 129.05 102.749 120.66C100.764 111.482 107.03 103.073 111.763 100.305C111.763 100.305 113.257 103.556 119.755 103.127C123.014 102.912 133.193 98.573 136.485 94.331C139.761 90.086 130.632 79.782 111.284 86.31C103.687 88.873 93.9719 94.057 90.1209 105.339C86.9809 114.537 85.0859 133.297 106.521 145.348C113.573 149.313 121.322 151.942 130.62 154.884C120.919 159.135 112.756 164.592 112.756 174.285C112.756 185.975 124.371 192.469 136.235 197.939C128.447 202.261 122.389 207.523 122.389 215.318C122.389 225.822 130.766 232.024 139.454 237.054C132.79 241.211 128.002 245.249 127.484 252.504C126.686 263.672 136.71 268.048 142.569 267.333C137.022 266.385 132.763 263.207 132.763 254.903C132.763 249.587 136.82 245.675 142.21 242.476C142.952 242.036 143.717 241.595 144.505 241.154C144.874 240.946 145.262 240.732 145.641 240.52C146.02 240.732 146.408 240.946 146.777 241.154C147.565 241.595 148.33 242.035 149.072 242.476C154.462 245.675 158.519 249.587 158.519 254.903C158.519 263.208 154.259 266.385 148.713 267.333C154.572 268.048 164.596 263.672 163.798 252.504C163.28 245.249 158.493 241.211 151.828 237.054C160.516 232.024 168.893 225.822 168.893 215.318C168.893 207.523 162.835 202.261 155.047 197.939C166.911 192.469 178.526 185.975 178.526 174.285C178.526 164.592 170.363 159.136 160.662 154.884C169.959 151.942 177.709 149.313 184.761 145.348C206.196 133.296 204.301 114.537 201.161 105.339C197.306 94.057 187.591 88.873 179.994 86.31ZM169.84 174.285C169.84 182.016 160.324 186.687 149.811 191.439L149.757 195.231L149.753 195.229L149.625 204.154C156.348 207.62 161.274 211.329 161.274 216.453C161.274 222.445 155.815 226.955 149.231 231.139C148.466 231.626 147.678 232.101 146.89 232.576C146.476 232.832 146.056 233.078 145.638 233.327C145.22 233.078 144.8 232.832 144.386 232.576C143.598 232.101 142.809 231.626 142.045 231.139C135.461 226.955 130.002 222.446 130.002 216.453C130.002 211.33 134.928 207.62 141.651 204.154L141.523 195.229L141.519 195.231L141.465 191.439C130.952 186.687 121.436 182.016 121.436 174.285C121.436 167.492 130.291 164.281 141.025 161.001C142.554 160.531 144.095 160.074 145.638 159.609C147.181 160.074 148.722 160.531 150.251 161.001C160.984 164.282 169.84 167.493 169.84 174.285ZM143.354 162.717L143.783 191.58L143.991 205.559L144.339 229.817L145.635 230.627L146.936 229.817L147.515 189.934L147.909 162.718L145.602 162.013L143.354 162.717ZM144.544 243.809L144.993 270.972C144.993 270.972 145.094 271.582 145.644 271.582C146.194 271.582 146.27 270.936 146.27 270.936L146.728 243.809L145.633 243.181L144.544 243.809Z" fill="url(#paint0_linear_324_1017)"/>
<defs>
<linearGradient id="paint0_linear_324_1017" x1="145.638" y1="274.283" x2="145.638" y2="12.9619" gradientUnits="userSpaceOnUse">
<stop stop-color="white"/>
<stop offset="0.0031" stop-color="#F9FCFE"/>
<stop offset="0.01" stop-color="#F2F8FC"/>
<stop offset="0.0292" stop-color="#F0F7FC"/>
<stop offset="0.8903" stop-color="#DAEBF8"/>
<stop offset="0.9888" stop-color="#D7EAF8"/>
</linearGradient>
</defs>
</svg>
